{"title":"[+18] Poison Ivy The New Seduction (1997) Unrated DVDRip 720p","uid":12552597,"size":1035377370,"categoryP":"video","categoryS":"movies_dvdr","magnet":"?xt=urn:btih:c39e21248fede36d58e542b1c56212b927692987&amp;dn=%5B%2B18%5D+Poison+Ivy+The+New+Seduction+%281997%29+Unrated+DVDRip+720p+&amp;tr=udp%3A%2F%2Ftracker.leechers-paradise.org%3A6969&amp;tr=udp%3A%2F%2Fzer0day.ch%3A1337&amp;tr=udp%3A%2F%2Fopen.demonii.com%3A1337&amp;tr=udp%3A%2F%2Ftracker.coppersurfer.tk%3A6969&amp;tr=udp%3A%2F%2Fexodus.desync.com%3A6969","seeders":15,"leechers":4,"uploader":"makintos13","files":2,"time":1444578501,"description":"http://imgmak.com/r0 \nhttp://imgmak.com/rA \nhttp://imgmak.com/rD \nhttp://imgmak.com/rf \nhttp://imgmak.com/rE\r\n\r\nID : 1\r\nFormat : AVC\r\nFormat/Info : Advanced Video Codec\r\nFormat profile :   \r\nFormat settings, CABAC : Yes\r\nFormat settings, ReFrames : 1 frame\r\nCodec ID : V_MPEG4/ISO/AVC\r\nBit rate : 1 009 Kbps\r\nWidth : 1 280 pixels\r\nHeight : 720 pixels\r\nDisplay aspect ratio : 16:9\r\nFrame rate mode : Variable\r\nColor space : YUV\r\nChroma subsampling : 4:2:0\r\nBit depth : 8 bits\r\nScan type : Progressive\r\n\r\nAudio #1\r\nID : 2\r\nFormat : AC-3\r\nFormat/Info : Audio Coding 3\r\nMode extension : CM (complete main)\r\nFormat settings, Endianness : Big\r\nCodec ID : A_AC3\r\nDuration : 1h 34mn\r\nBit rate mode : Constant\r\nBit rate : 256 Kbps\r\nChannel(s) : 6 channels\r\nChannel positions : Front: L C R, Side: L R, LFE\r\nSampling rate : 48.0 KHz\r\nBit depth : 16 bits\r\nCompression mode : Lossy\r\nStream size : 173 MiB (18%)\r\nLanguage : English\r\nDefault : No\r\nForced : No\r\n\r\nAudio #2\r\nID : 3\r\nFormat : AC-3\r\nFormat/Info : Audio Coding 3\r\nMode extension : CM (complete main)\r\nFormat settings, Endianness : Big\r\nCodec ID : A_AC3\r\nDuration : 1h 34mn\r\nBit rate mode : Constant\r\nBit rate : 192 Kbps\r\nChannel(s) : 2 channels\r\nChannel positions : Front: L R\r\nSampling rate : 48.0 KHz\r\nBit depth : 16 bits\r\nCompression mode : Lossy\r\nStream size : 129 MiB (13%)\r\nLanguage : Hindi\r\nDefault : No\r\nForced : No","torrent":{"xt":"urn:btih:c39e21248fede36d58e542b1c56212b927692987","amp;dn":"%5B%2B18%5D+Poison+Ivy+The+New+Seduction+%281997%29+Unrated+DVDRip+720p+","amp;tr":["udp%3A%2F%2Ftracker.leechers-paradise.org%3A6969","udp%3A%2F%2Fzer0day.ch%3A1337","udp%3A%2F%2Fopen.demonii.com%3A1337","udp%3A%2F%2Ftracker.coppersurfer.tk%3A6969","udp%3A%2F%2Fexodus.desync.com%3A6969"],"infoHash":"c39e21248fede36d58e542b1c56212b927692987","infoHashBuffer":{"type":"Buffer","data":[195,158,33,36,143,237,227,109,88,229,66,177,197,98,18,185,39,105,41,135]},"announce":[],"urlList":[]}}